HIERARCHY
ROOT SpineBase
{
  OFFSET 0.000000 0.000000 0.000000
  CHANNELS 6 Xposition Yposition Zposition Zrotation Xrotation Yrotation
  JOINT SpineMid
  {
    OFFSET 0.000000 28.567048 0.000000
    CHANNELS 3 Zrotation Xrotation Yrotation
    JOINT SpineShoulder
    {
      OFFSET -0.084126 21.242411 -0.608889
      CHANNELS 3 Zrotation Xrotation Yrotation
      JOINT Neck
      {
        OFFSET -0.057497 7.037069 -0.470814
        CHANNELS 3 Zrotation Xrotation Yrotation
        JOINT Head
        {
          OFFSET -1.780712 12.669937 -0.919979
          CHANNELS 3 Zrotation Xrotation Yrotation
          End Site
          {
            OFFSET 0 0 0
          }
        }
      }
      JOINT ShoulderLeft
      {
        OFFSET -16.145167 -1.750008 6.135460
        CHANNELS 3 Zrotation Xrotation Yrotation
        JOINT ElbowLeft
        {
          OFFSET -5.368705 -25.552352 2.883893
          CHANNELS 3 Zrotation Xrotation Yrotation
          JOINT WristLeft
          {
            OFFSET -2.895894 -20.173861 -2.696536
            CHANNELS 3 Zrotation Xrotation Yrotation
            JOINT HandLeft
            {
              OFFSET -0.279061 -6.703394 -2.850778
              CHANNELS 3 Zrotation Xrotation Yrotation
              JOINT HandTipLeft
              {
                OFFSET -0.352444 -6.233502 -1.009796
                CHANNELS 3 Zrotation Xrotation Yrotation
                End Site
                {
                  OFFSET 0 0 0
                }
              }
              JOINT ThumbLeft
              {
                OFFSET -3.081991 0.242333 -1.840478
                CHANNELS 3 Zrotation Xrotation Yrotation
                End Site
                {
                  OFFSET 0 0 0
                }
              }
            }
          }
        }
      }
      JOINT ShoulderRight
      {
        OFFSET 15.349901 -1.507462 -4.554536
        CHANNELS 3 Zrotation Xrotation Yrotation
        JOINT ElbowRight
        {
          OFFSET 5.305807 -26.081157 -2.979185
          CHANNELS 3 Zrotation Xrotation Yrotation
          JOINT WristRight
          {
            OFFSET 0.515791 -20.066887 -4.910205
            CHANNELS 3 Zrotation Xrotation Yrotation
            JOINT HandRight
            {
              OFFSET -1.939793 -7.944426 -1.197028
              CHANNELS 3 Zrotation Xrotation Yrotation
              JOINT HandTipRight
              {
                OFFSET 0.231580 -7.199263 -0.816170
                CHANNELS 3 Zrotation Xrotation Yrotation
                End Site
                {
                  OFFSET 0 0 0
                }
              }
              JOINT ThumbRight
              {
                OFFSET 2.472053 -1.304371 -2.487771
                CHANNELS 3 Zrotation Xrotation Yrotation
                End Site
                {
                  OFFSET 0 0 0
                }
              }
            }
          }
        }
      }
    }
  }
  JOINT HipLeft
  {
    OFFSET -7.315685 0.367343 -1.383054
    CHANNELS 3 Zrotation Xrotation Yrotation
    JOINT KneeLeft
    {
      OFFSET -7.536667 -31.916631 3.022623
      CHANNELS 3 Zrotation Xrotation Yrotation
      JOINT AnkleLeft
      {
        OFFSET -2.677980 -34.973406 7.299434
        CHANNELS 3 Zrotation Xrotation Yrotation
        JOINT FootLeft
        {
          OFFSET -2.472017 -3.934782 -12.488873
          CHANNELS 3 Zrotation Xrotation Yrotation
          End Site
          {
            OFFSET 0 0 0
          }
        }
      }
    }
  }
  JOINT HipRight
  {
    OFFSET 6.722369 0.888776 -4.633438
    CHANNELS 3 Zrotation Xrotation Yrotation
    JOINT KneeRight
    {
      OFFSET 3.868994 -29.052445 2.527347
      CHANNELS 3 Zrotation Xrotation Yrotation
      JOINT AnkleRight
      {
        OFFSET 0.898132 -36.455252 9.443435
        CHANNELS 3 Zrotation Xrotation Yrotation
        JOINT FootRight
        {
          OFFSET -2.350756 -5.760132 -9.169087
          CHANNELS 3 Zrotation Xrotation Yrotation
          End Site
          {
            OFFSET 0 0 0
          }
        }
      }
    }
  }
}
MOTION
Frames: 8
Frame Time: 0.033333
31.038325 75.547248 364.897495 -0.715834 -1.222480 22.322599 0.234269 0.079471 -22.350737 0.030077 0.058200 -0.022219 7.767494 9.755243 1.109356 0.000000 0.000000 0.000000 -88.390596 -10.169188 -15.789347 -17.648870 1.166653 32.408602 9.145198 -45.283106 -16.155059 -16.450940 41.055540 25.611727 0.000000 0.000000 0.000000 0.000000 0.000000 0.000000 4.781450 3.992795 -0.030288 -9.261007 -2.261599 0.776406 3.462483 -4.674346 -0.101929 -10.092271 16.256310 2.515823 0.000000 0.000000 0.000000 0.000000 0.000000 0.000000 6.136391 1.980149 -22.763664 -3.116590 0.476346 0.179152 -2.467542 -7.667622 7.734497 0.000000 0.000000 0.000000 6.453439 2.114171 -21.667153 -1.762684 -2.935389 -0.076604 -7.304040 5.371328 4.182731 0.000000 0.000000 0.000000
30.926110 75.621851 365.051876 -0.803810 -1.242743 22.387507 0.212988 0.068182 -22.419677 -0.011385 0.025011 -0.029106 7.358365 10.035373 1.139394 0.000000 0.000000 0.000000 -88.327319 -9.649701 -15.415713 -17.618201 0.720401 32.010871 12.249066 -43.033678 -12.318192 -15.591563 37.313556 20.571245 0.000000 0.000000 0.000000 0.000000 0.000000 0.000000 4.786854 3.880971 -0.035650 -9.079008 -2.412254 0.793114 4.332336 -4.701629 -0.105085 -10.800793 15.698851 2.487235 0.000000 0.000000 0.000000 0.000000 0.000000 0.000000 6.409372 2.066068 -22.866328 -3.262320 0.386672 0.189395 -2.533709 -7.446803 7.756023 0.000000 0.000000 0.000000 6.852115 2.427802 -21.685772 -1.719824 -3.533180 -0.081762 -6.708127 3.172142 3.868224 0.000000 0.000000 0.000000
30.847254 75.649857 365.192839 -0.897778 -1.295309 22.427816 0.199834 0.064900 -22.464549 -0.041151 0.011570 -0.035224 7.136278 10.389094 1.172299 0.000000 0.000000 0.000000 -88.208595 -9.760599 -15.412012 -18.241721 0.898186 32.542574 12.341871 -44.888456 -14.587830 -17.558213 37.812780 23.024406 0.000000 0.000000 0.000000 0.000000 0.000000 0.000000 4.709369 3.839263 -0.019307 -8.816186 -2.678547 0.775856 4.842841 -5.716608 0.181874 -9.787691 16.597306 1.983633 0.000000 0.000000 0.000000 0.000000 0.000000 0.000000 6.504151 2.165949 -22.937384 -3.274094 0.690652 0.165924 -1.954860 -9.807984 7.902675 0.000000 0.000000 0.000000 7.488821 3.140199 -21.649748 -1.833347 -4.647540 -0.171478 -6.684034 2.574141 3.984060 0.000000 0.000000 0.000000
30.778618 75.682986 365.206628 -0.991739 -1.279267 22.402809 0.163646 0.032939 -22.443812 -0.062933 -0.006922 -0.041245 7.192239 10.698755 1.200284 0.000000 0.000000 0.000000 -88.500109 -9.261317 -15.160625 -17.221356 -0.145389 31.249856 15.934699 -41.125634 -9.602496 -16.092860 33.131739 16.354019 0.000000 0.000000 0.000000 0.000000 0.000000 0.000000 4.622292 3.868133 0.017488 -8.537639 -3.018649 0.726306 4.937301 -6.129067 0.364974 -8.758950 18.229763 1.677065 0.000000 0.000000 0.000000 0.000000 0.000000 0.000000 6.517327 2.199747 -22.931539 -3.190677 0.941420 0.160529 -2.257424 -9.176797 8.097815 0.000000 0.000000 0.000000 7.767897 3.703138 -21.579621 -1.627370 -5.457923 -0.183273 -7.311221 3.568863 4.328645 0.000000 0.000000 0.000000
30.723698 75.699815 365.140581 -1.050039 -1.188777 22.349712 0.105533 -0.015965 -22.393158 -0.077453 -0.036526 -0.046066 7.183761 10.785123 1.216451 0.000000 0.000000 0.000000 -88.681612 -8.687670 -14.862764 -16.573657 -1.485636 29.836250 17.751939 -39.514114 -8.111775 -17.041329 29.551500 13.449162 0.000000 0.000000 0.000000 0.000000 0.000000 0.000000 4.454554 3.929819 0.075820 -8.309011 -3.456374 0.666793 5.197858 -7.264724 0.703574 -8.230076 17.883004 1.141765 0.000000 0.000000 0.000000 0.000000 0.000000 0.000000 6.411084 2.170254 -22.885510 -2.882685 0.938035 0.219380 -2.929893 -7.678225 8.307394 0.000000 0.000000 0.000000 8.108696 3.677272 -21.481199 -2.085541 -5.588097 -0.305031 -8.201328 5.876817 5.040005 0.000000 0.000000 0.000000
30.683309 75.681618 364.951600 -1.069981 -1.038381 22.153839 0.036113 -0.080714 -22.197843 -0.084495 -0.060250 -0.048970 7.252090 10.588154 1.210732 0.000000 0.000000 0.000000 -89.390680 -7.832029 -14.544157 -14.729454 -3.161934 27.730505 19.987362 -33.443469 -2.092070 -16.537318 26.558208 8.797062 0.000000 0.000000 0.000000 0.000000 0.000000 0.000000 4.286809 3.942945 0.128077 -8.055189 -3.700622 0.611797 5.185327 -7.348034 0.774272 -7.373053 17.363951 0.748457 0.000000 0.000000 0.000000 0.000000 0.000000 0.000000 6.183870 2.051816 -22.671833 -2.528974 0.920347 0.275861 -3.778974 -5.599528 8.591270 0.000000 0.000000 0.000000 7.657812 2.961516 -21.326047 -2.070715 -4.484273 -0.250016 -9.642598 9.057763 5.995981 0.000000 0.000000 0.000000
30.638391 75.674258 364.807826 -1.133356 -0.991389 22.010093 0.008976 -0.112746 -22.056681 -0.079226 -0.046870 -0.051367 7.371359 10.412986 1.201918 0.000000 0.000000 0.000000 -89.722316 -7.751207 -14.604601 -12.894468 -3.596077 26.652438 17.019142 -30.517117 0.626598 -13.365244 26.879806 6.483579 0.000000 0.000000 0.000000 0.000000 0.000000 0.000000 4.286770 3.808245 0.124445 -7.826196 -3.683957 0.605283 6.238835 -8.720100 1.080710 -6.733996 18.839598 0.203951 0.000000 0.000000 0.000000 0.000000 0.000000 0.000000 6.075445 2.010878 -22.522392 -2.180470 1.012704 0.327075 -5.251113 -1.437717 8.850315 0.000000 0.000000 0.000000 7.454799 2.371168 -21.220318 -2.295486 -3.826753 -0.256147 -8.668953 7.552589 5.529839 0.000000 0.000000 0.000000
30.598383 75.674009 364.693961 -1.162677 -0.891222 21.912353 -0.008841 -0.122174 -21.959118 -0.072573 -0.022089 -0.051865 7.271571 10.233139 1.213694 0.000000 0.000000 0.000000 -89.657663 -7.744282 -14.699887 -13.238272 -3.426452 26.938596 16.142600 -33.000590 -1.926846 -13.334434 29.309171 9.531252 0.000000 0.000000 0.000000 0.000000 0.000000 0.000000 4.329861 3.490982 0.095186 -7.551542 -3.513986 0.614683 6.748524 -9.268717 1.244406 -4.794665 19.471277 -0.680832 0.000000 0.000000 0.000000 0.000000 0.000000 0.000000 5.960353 1.919488 -22.412906 -1.953536 0.861501 0.377689 -4.186724 -5.460543 8.685438 0.000000 0.000000 0.000000 7.269594 1.834741 -21.146599 -2.529202 -3.437371 -0.269631 -10.225299 11.476020 6.736442 0.000000 0.000000 0.000000
